<?xml version="1.0" standalone="no"?>
<!DOCTYPE svg PUBLIC "-//W3C//DTD SVG 1.1//EN" "http://www.w3.org/Graphics/SVG/1.1/DTD/svg11.dtd">
<svg xmlns:xlink="http://www.w3.org/1999/xlink" width="39.129ex" height="19.176ex" style="vertical-align: -9.005ex;" viewBox="0 -4379.3 16847.3 8256.3" xmlns="http://www.w3.org/2000/svg">
<defs>
<path stroke-width="10" id="E1-MJMATHI-43" d="M50 252Q50 367 117 473T286 641T490 704Q580 704 633 653Q642 643 648 636T656 626L657 623Q660 623 684 649Q691 655 699 663T715 679T725 690L740 705H746Q760 705 760 698Q760 694 728 561Q692 422 692 421Q690 416 687 415T669 413H653Q647 419 647 422Q647 423 648 429T650 449T651 481Q651 552 619 605T510 659Q484 659 454 652T382 628T299 572T226 479Q194 422 175 346T156 222Q156 108 232 58Q280 24 350 24Q441 24 512 92T606 240Q610 253 612 255T628 257Q648 257 648 248Q648 243 647 239Q618 132 523 55T319 -22Q206 -22 128 53T50 252Z"></path>
<path stroke-width="10" id="E1-MJMAIN-3D" d="M56 347Q56 360 70 367H707Q722 359 722 347Q722 336 708 328L390 327H72Q56 332 56 347ZM56 153Q56 168 72 173H708Q722 163 722 153Q722 140 707 133H70Q56 140 56 153Z"></path>
<path stroke-width="10" id="E1-MJMAIN-5B" d="M118 -250V750H255V710H158V-210H255V-250H118Z"></path>
<path stroke-width="10" id="E1-MJMATHI-63" d="M34 159Q34 268 120 355T306 442Q362 442 394 418T427 355Q427 326 408 306T360 285Q341 285 330 295T319 325T330 359T352 380T366 386H367Q367 388 361 392T340 400T306 404Q276 404 249 390Q228 381 206 359Q162 315 142 235T121 119Q121 73 147 50Q169 26 205 26H209Q321 26 394 111Q403 121 406 121Q410 121 419 112T429 98T420 83T391 55T346 25T282 0T202 -11Q127 -11 81 37T34 159Z"></path>
<path stroke-width="10" id="E1-MJMAIN-30" d="M96 585Q152 666 249 666Q297 666 345 640T423 548Q460 465 460 320Q460 165 417 83Q397 41 362 16T301 -15T250 -22Q224 -22 198 -16T137 16T82 83Q39 165 39 320Q39 494 96 585ZM321 597Q291 629 250 629Q208 629 178 597Q153 571 145 525T137 333Q137 175 145 125T181 46Q209 16 250 16Q290 16 318 46Q347 76 354 130T362 333Q362 478 354 524T321 597Z"></path>
<path stroke-width="10" id="E1-MJMATHI-6E" d="M21 287Q22 293 24 303T36 341T56 388T89 425T135 442Q171 442 195 424T225 390T231 369Q231 367 232 367L243 378Q304 442 382 442Q436 442 469 415T503 336T465 179T427 52Q427 26 444 26Q450 26 453 27Q482 32 505 65T540 145Q542 153 560 153Q580 153 580 145Q580 144 576 130Q568 101 554 73T508 17T439 -10Q392 -10 371 17T350 73Q350 92 386 193T423 345Q423 404 379 404H374Q288 404 229 303L222 291L189 157Q156 26 151 16Q138 -11 108 -11Q95 -11 87 -5T76 7T74 17Q74 30 112 180T152 343Q153 348 153 366Q153 405 129 405Q91 405 66 305Q60 285 60 284Q58 278 41 278H27Q21 284 21 287Z"></path>
<path stroke-width="10" id="E1-MJMAIN-2212" d="M84 237T84 250T98 270H679Q694 262 694 250T679 230H98Q84 237 84 250Z"></path>
<path stroke-width="10" id="E1-MJMAIN-31" d="M213 578L200 573Q186 568 160 563T102 556H83V602H102Q149 604 189 617T245 641T273 663Q275 666 285 666Q294 666 302 660V361L303 61Q310 54 315 52T339 48T401 46H427V0H416Q395 3 257 3Q121 3 100 0H88V46H114Q136 46 152 46T177 47T193 50T201 52T207 57T213 61V578Z"></path>
<path stroke-width="10" id="E1-MJMAIN-2026" d="M78 60Q78 84 95 102T138 120Q162 120 180 104T199 61Q199 36 182 18T139 0T96 17T78 60ZM525 60Q525 84 542 102T585 120Q609 120 627 104T646 61Q646 36 629 18T586 0T543 17T525 60ZM972 60Q972 84 989 102T1032 120Q1056 120 1074 104T1093 61Q1093 36 1076 18T1033 0T990 17T972 60Z"></path>
<path stroke-width="10" id="E1-MJMAIN-32" d="M109 429Q82 429 66 447T50 491Q50 562 103 614T235 666Q326 666 387 610T449 465Q449 422 429 383T381 315T301 241Q265 210 201 149L142 93L218 92Q375 92 385 97Q392 99 409 186V189H449V186Q448 183 436 95T421 3V0H50V19V31Q50 38 56 46T86 81Q115 113 136 137Q145 147 170 174T204 211T233 244T261 278T284 308T305 340T320 369T333 401T340 431T343 464Q343 527 309 573T212 619Q179 619 154 602T119 569T109 550Q109 549 114 549Q132 549 151 535T170 489Q170 464 154 447T109 429Z"></path>
<path stroke-width="10" id="E1-MJMAIN-22EE" d="M78 30Q78 54 95 72T138 90Q162 90 180 74T199 31Q199 6 182 -12T139 -30T96 -13T78 30ZM78 440Q78 464 95 482T138 500Q162 500 180 484T199 441Q199 416 182 398T139 380T96 397T78 440ZM78 840Q78 864 95 882T138 900Q162 900 180 884T199 841Q199 816 182 798T139 780T96 797T78 840Z"></path>
<path stroke-width="10" id="E1-MJMAIN-22F1" d="M133 760Q133 784 150 802T193 820Q217 820 235 804T254 761Q254 736 237 718T194 700T151 717T133 760ZM580 460Q580 484 597 502T640 520Q664 520 682 504T701 461Q701 436 684 418T641 400T598 417T580 460ZM1027 160Q1027 184 1044 202T1087 220Q1111 220 1129 204T1148 161Q1148 136 1131 118T1088 100T1045 117T1027 160Z"></path>
<path stroke-width="10" id="E1-MJMAIN-5D" d="M22 710V750H159V-250H22V-210H119V710H22Z"></path>
<path stroke-width="10" id="E1-MJSZ4-23A1" d="M319 -645V1154H666V1070H403V-645H319Z"></path>
<path stroke-width="10" id="E1-MJSZ4-23A3" d="M319 -644V1155H403V-560H666V-644H319Z"></path>
<path stroke-width="10" id="E1-MJSZ4-23A2" d="M319 0V602H403V0H319Z"></path>
<path stroke-width="10" id="E1-MJSZ4-23A4" d="M0 1070V1154H347V-645H263V1070H0Z"></path>
<path stroke-width="10" id="E1-MJSZ4-23A6" d="M263 -560V1155H347V-644H0V-560H263Z"></path>
<path stroke-width="10" id="E1-MJSZ4-23A5" d="M263 0V602H347V0H263Z"></path>
<path stroke-width="10" id="E1-MJMAIN-2E" d="M78 60Q78 84 95 102T138 120Q162 120 180 104T199 61Q199 36 182 18T139 0T96 17T78 60Z"></path>
</defs>
<g stroke="currentColor" fill="currentColor" stroke-width="0" transform="matrix(1 0 0 -1 0 0)">
 <use xlink:href="#E1-MJMATHI-43" x="0" y="0"></use>
 <use xlink:href="#E1-MJMAIN-3D" x="1042" y="0"></use>
<g transform="translate(2103,0)">
<g transform="translate(0,4280)">
 <use xlink:href="#E1-MJSZ4-23A1" x="0" y="-1164"></use>
<g transform="translate(0,-6218.299035369775) scale(1,7.270096463022508)">
 <use xlink:href="#E1-MJSZ4-23A2"></use>
</g>
 <use xlink:href="#E1-MJSZ4-23A3" x="0" y="-7406"></use>
</g>
<g transform="translate(839,0)">
<g transform="translate(-11,0)">
<g transform="translate(490,3480)">
 <use xlink:href="#E1-MJMATHI-63" x="0" y="0"></use>
 <use transform="scale(0.707)" xlink:href="#E1-MJMAIN-30" x="619" y="-213"></use>
</g>
<g transform="translate(490,2080)">
 <use xlink:href="#E1-MJMATHI-63" x="0" y="0"></use>
 <use transform="scale(0.707)" xlink:href="#E1-MJMAIN-31" x="619" y="-213"></use>
</g>
 <use xlink:href="#E1-MJMAIN-22EE" x="796" y="-50"></use>
<g transform="translate(0,-2180)">
 <use xlink:href="#E1-MJMATHI-63" x="0" y="0"></use>
<g transform="translate(438,-150)">
 <use transform="scale(0.707)" xlink:href="#E1-MJMATHI-6E" x="0" y="0"></use>
 <use transform="scale(0.707)" xlink:href="#E1-MJMAIN-2212" x="605" y="0"></use>
 <use transform="scale(0.707)" xlink:href="#E1-MJMAIN-32" x="1388" y="0"></use>
</g>
</g>
<g transform="translate(0,-3580)">
 <use xlink:href="#E1-MJMATHI-63" x="0" y="0"></use>
<g transform="translate(438,-150)">
 <use transform="scale(0.707)" xlink:href="#E1-MJMATHI-6E" x="0" y="0"></use>
 <use transform="scale(0.707)" xlink:href="#E1-MJMAIN-2212" x="605" y="0"></use>
 <use transform="scale(0.707)" xlink:href="#E1-MJMAIN-31" x="1388" y="0"></use>
</g>
</g>
</g>
<g transform="translate(2866,0)">
<g transform="translate(0,3480)">
 <use xlink:href="#E1-MJMATHI-63" x="0" y="0"></use>
<g transform="translate(438,-150)">
 <use transform="scale(0.707)" xlink:href="#E1-MJMATHI-6E" x="0" y="0"></use>
 <use transform="scale(0.707)" xlink:href="#E1-MJMAIN-2212" x="605" y="0"></use>
 <use transform="scale(0.707)" xlink:href="#E1-MJMAIN-31" x="1388" y="0"></use>
</g>
</g>
<g transform="translate(490,2080)">
 <use xlink:href="#E1-MJMATHI-63" x="0" y="0"></use>
 <use transform="scale(0.707)" xlink:href="#E1-MJMAIN-30" x="619" y="-213"></use>
</g>
<g transform="translate(490,-50)">
 <use xlink:href="#E1-MJMATHI-63" x="0" y="0"></use>
 <use transform="scale(0.707)" xlink:href="#E1-MJMAIN-31" x="619" y="-213"></use>
</g>
<g transform="translate(0,-3580)">
 <use xlink:href="#E1-MJMATHI-63" x="0" y="0"></use>
<g transform="translate(438,-150)">
 <use transform="scale(0.707)" xlink:href="#E1-MJMATHI-6E" x="0" y="0"></use>
 <use transform="scale(0.707)" xlink:href="#E1-MJMAIN-2212" x="605" y="0"></use>
 <use transform="scale(0.707)" xlink:href="#E1-MJMAIN-32" x="1388" y="0"></use>
</g>
</g>
</g>
<g transform="translate(5742,0)">
 <use xlink:href="#E1-MJMAIN-2026" x="349" y="3480"></use>
<g transform="translate(0,2080)">
 <use xlink:href="#E1-MJMATHI-63" x="0" y="0"></use>
<g transform="translate(438,-150)">
 <use transform="scale(0.707)" xlink:href="#E1-MJMATHI-6E" x="0" y="0"></use>
 <use transform="scale(0.707)" xlink:href="#E1-MJMAIN-2212" x="605" y="0"></use>
 <use transform="scale(0.707)" xlink:href="#E1-MJMAIN-31" x="1388" y="0"></use>
</g>
</g>
<g transform="translate(490,-50)">
 <use xlink:href="#E1-MJMATHI-63" x="0" y="0"></use>
 <use transform="scale(0.707)" xlink:href="#E1-MJMAIN-30" x="619" y="-213"></use>
</g>
 <use xlink:href="#E1-MJMAIN-22F1" x="294" y="-2180"></use>
 <use xlink:href="#E1-MJMAIN-2026" x="349" y="-3580"></use>
</g>
<g transform="translate(8619,0)">
<g transform="translate(195,3480)">
 <use xlink:href="#E1-MJMATHI-63" x="0" y="0"></use>
 <use transform="scale(0.707)" xlink:href="#E1-MJMAIN-32" x="619" y="-213"></use>
</g>
 <use xlink:href="#E1-MJMAIN-22F1" x="0" y="-50"></use>
 <use xlink:href="#E1-MJMAIN-22F1" x="0" y="-2180"></use>
<g transform="translate(195,-3580)">
 <use xlink:href="#E1-MJMATHI-63" x="0" y="0"></use>
 <use transform="scale(0.707)" xlink:href="#E1-MJMAIN-31" x="619" y="-213"></use>
</g>
</g>
<g transform="translate(10906,0)">
<g transform="translate(490,3480)">
 <use xlink:href="#E1-MJMATHI-63" x="0" y="0"></use>
 <use transform="scale(0.707)" xlink:href="#E1-MJMAIN-31" x="619" y="-213"></use>
</g>
<g transform="translate(490,2080)">
 <use xlink:href="#E1-MJMATHI-63" x="0" y="0"></use>
 <use transform="scale(0.707)" xlink:href="#E1-MJMAIN-32" x="619" y="-213"></use>
</g>
 <use xlink:href="#E1-MJMAIN-22EE" x="796" y="-50"></use>
<g transform="translate(0,-2180)">
 <use xlink:href="#E1-MJMATHI-63" x="0" y="0"></use>
<g transform="translate(438,-150)">
 <use transform="scale(0.707)" xlink:href="#E1-MJMATHI-6E" x="0" y="0"></use>
 <use transform="scale(0.707)" xlink:href="#E1-MJMAIN-2212" x="605" y="0"></use>
 <use transform="scale(0.707)" xlink:href="#E1-MJMAIN-31" x="1388" y="0"></use>
</g>
</g>
<g transform="translate(490,-3580)">
 <use xlink:href="#E1-MJMATHI-63" x="0" y="0"></use>
 <use transform="scale(0.707)" xlink:href="#E1-MJMAIN-30" x="619" y="-213"></use>
</g>
</g>
</g>
<g transform="translate(13788,4280)">
 <use xlink:href="#E1-MJSZ4-23A4" x="0" y="-1164"></use>
<g transform="translate(0,-6218.299035369775) scale(1,7.270096463022508)">
 <use xlink:href="#E1-MJSZ4-23A5"></use>
</g>
 <use xlink:href="#E1-MJSZ4-23A6" x="0" y="-7406"></use>
</g>
</g>
 <use xlink:href="#E1-MJMAIN-2E" x="16564" y="0"></use>
</g>
</svg>